<svg width="25" height="25" viewBox="0 0 25 25" fill="none" xmlns="http://www.w3.org/2000/svg">
<rect x="24.5" y="24.5" width="24" height="24" transform="rotate(180 24.5 24.5)" stroke="white"/>
<path d="M22.8977 11.4568L4.59844 11.4568L8.02758 8.0316C9.01183 7.04734 7.53545 5.56703 6.5512 6.55128L3.42915 9.67727L1.34254 11.7639C1.1478 11.9594 1.03847 12.2241 1.03847 12.5001C1.03847 12.7761 1.1478 13.0408 1.34254 13.2363L6.55514 18.4489C6.65338 18.5497 6.77099 18.6295 6.9009 18.6837C7.0308 18.7378 7.17031 18.7651 7.31104 18.7639C7.51889 18.7633 7.72183 18.7007 7.89386 18.5841C8.06588 18.4674 8.19914 18.302 8.27655 18.1091C8.35396 17.9163 8.37199 17.7046 8.32834 17.5014C8.28468 17.2982 8.18132 17.1127 8.03151 16.9686L4.59451 13.5434L22.9528 13.5434C24.3977 13.4686 24.2914 11.3859 22.8977 11.4568Z" fill="#A9774E"/>
</svg>
