<svg width="25" height="25" viewBox="0 0 25 25" fill="none" xmlns="http://www.w3.org/2000/svg">
<rect x="0.5" y="-0.5" width="24" height="24" transform="matrix(1 8.74228e-08 8.74228e-08 -1 4.37114e-08 24)" stroke="white"/>
<path d="M2.10235 11.4568L20.4016 11.4568L16.9724 8.0316C15.9882 7.04734 17.4645 5.56703 18.4488 6.55128L21.5708 9.67727L23.6575 11.7639C23.8522 11.9594 23.9615 12.2241 23.9615 12.5001C23.9615 12.7761 23.8522 13.0408 23.6575 13.2363L18.4449 18.4489C18.3466 18.5497 18.229 18.6295 18.0991 18.6837C17.9692 18.7378 17.8297 18.7651 17.689 18.7639C17.4811 18.7633 17.2782 18.7007 17.1061 18.5841C16.9341 18.4674 16.8009 18.302 16.7234 18.1091C16.646 17.9163 16.628 17.7046 16.6717 17.5014C16.7153 17.2982 16.8187 17.1127 16.9685 16.9686L20.4055 13.5434L2.04723 13.5434C0.602348 13.4686 0.708648 11.3859 2.10235 11.4568Z" fill="#A9774E"/>
</svg>
