<svg width="27" height="27" viewBox="0 0 27 27" fill="none" xmlns="http://www.w3.org/2000/svg">
<g clip-path="url(#clip0_56_2778)">
<path d="M8.73757 19.3247L18.054 10.0082L18.052 13.4979C18.052 14.5001 19.5573 14.5021 19.5573 13.4999L19.5553 10.3189L19.5553 8.19425C19.5549 7.99555 19.4758 7.80511 19.3353 7.66462C19.1948 7.52412 19.0043 7.44501 18.8057 7.4446L13.498 7.4446C13.3967 7.44332 13.2962 7.46254 13.2025 7.50112C13.1088 7.5397 13.0239 7.59684 12.9528 7.66909C12.8473 7.77519 12.7758 7.91039 12.7476 8.05736C12.7194 8.20433 12.7358 8.35637 12.7946 8.49399C12.8534 8.6316 12.9519 8.74852 13.0776 8.82975C13.2033 8.91098 13.3504 8.95282 13.5 8.9499L16.9937 8.94389L7.64718 18.2904C6.94965 19.0641 8.06409 20.0703 8.73757 19.3247Z" fill="white"/>
</g>
<defs>
<clipPath id="clip0_56_2778">
<rect width="18" height="18" fill="white" transform="translate(0.772095 13.5) rotate(-45)"/>
</clipPath>
</defs>
</svg>
