<svg width="30" height="30" viewBox="0 0 30 30" fill="none" xmlns="http://www.w3.org/2000/svg">
<circle cx="15" cy="15" r="15" fill="white"/>
<path d="M21.2 15.1533H18.88C18.2267 15.1533 17.6467 15.5133 17.3533 16.1L16.7933 17.2067C16.66 17.4733 16.3933 17.64 16.1 17.64H13.9133C13.7067 17.64 13.4133 17.5933 13.22 17.2067L12.66 16.1067C12.3667 15.5267 11.78 15.16 11.1333 15.16H8.80001C8.54001 15.16 8.33334 15.3667 8.33334 15.6267V17.8C8.33334 20.22 9.78668 21.6667 12.2133 21.6667H17.8C20.0867 21.6667 21.4933 20.4133 21.6667 18.1867V15.62C21.6667 15.3667 21.46 15.1533 21.2 15.1533Z" fill="#A9774E"/>
<path d="M21.6667 12.2063V14.233C21.52 14.1797 21.36 14.153 21.2 14.153H18.88C17.8467 14.153 16.92 14.7263 16.46 15.6463L15.96 16.633H14.0533L13.5533 15.653C13.0933 14.7263 12.1667 14.153 11.1333 14.153H8.80001C8.64001 14.153 8.48001 14.1797 8.33334 14.233V12.2063C8.33334 9.77967 9.78001 8.33301 12.2067 8.33301H17.7933C20.22 8.33301 21.6667 9.77967 21.6667 12.2063Z" fill="#A9774E"/>
</svg>
