<svg width="30" height="30" viewBox="0 0 30 30" fill="none" xmlns="http://www.w3.org/2000/svg">
<circle cx="15" cy="15" r="15" fill="white"/>
<path d="M13.464 15.8322H11.88C11.624 15.8322 11.544 15.7362 11.544 15.4962V13.5602C11.544 13.3042 11.64 13.2242 11.88 13.2242H13.464V11.8162C13.464 11.1762 13.576 10.5682 13.896 10.0082C14.232 9.43221 14.712 9.04821 15.32 8.82421C15.72 8.68021 16.12 8.61621 16.552 8.61621H18.12C18.344 8.61621 18.44 8.71221 18.44 8.93621V10.7602C18.44 10.9842 18.344 11.0802 18.12 11.0802C17.688 11.0802 17.256 11.0802 16.824 11.0962C16.392 11.0962 16.168 11.3042 16.168 11.7522C16.152 12.2322 16.168 12.6962 16.168 13.1922H18.024C18.28 13.1922 18.376 13.2882 18.376 13.5442V15.4802C18.376 15.7362 18.296 15.8162 18.024 15.8162H16.168V21.0322C16.168 21.3042 16.088 21.4002 15.8 21.4002H13.8C13.56 21.4002 13.464 21.3042 13.464 21.0642V15.8322Z" fill="#DBA156"/>
</svg>
