<svg width="26" height="26" viewBox="0 0 26 26" fill="none" xmlns="http://www.w3.org/2000/svg">
<g clip-path="url(#clip0_56_3786)">
<path d="M7.96546 18.8249L17.2819 9.50847L17.2799 12.9981C17.2799 14.0003 18.7852 14.0023 18.7852 13.0001L18.7832 9.81915L18.7832 7.69449C18.7828 7.4958 18.7037 7.30536 18.5632 7.16486C18.4227 7.02436 18.2322 6.94525 18.0335 6.94485L12.7259 6.94485C12.6246 6.94356 12.5241 6.96278 12.4304 7.00136C12.3367 7.03994 12.2517 7.09708 12.1807 7.16934C12.0752 7.27543 12.0037 7.41063 11.9755 7.5576C11.9473 7.70457 11.9637 7.85661 12.0225 7.99423C12.0813 8.13185 12.1798 8.24876 12.3055 8.32999C12.4312 8.41122 12.5783 8.45306 12.7279 8.45015L16.2216 8.44413L6.87507 17.7906C6.17754 18.5643 7.29198 19.5705 7.96546 18.8249Z" fill="white"/>
</g>
<defs>
<clipPath id="clip0_56_3786">
<rect width="18" height="18" fill="white" transform="translate(0 13) rotate(-45)"/>
</clipPath>
</defs>
</svg>
