<svg width="20" height="20" viewBox="0 0 20 20" fill="none" xmlns="http://www.w3.org/2000/svg">
<g clip-path="url(#clip0_31_1012)">
<path d="M19.4692 7.15354L13.3208 6.21438L10.565 0.344375C10.3592 -0.0939583 9.64 -0.0939583 9.43416 0.344375L6.67916 6.21438L0.530831 7.15354C0.417312 7.17098 0.310793 7.21936 0.22297 7.29337C0.135147 7.36739 0.0694155 7.46417 0.0329931 7.57309C-0.00342921 7.68201 -0.0091341 7.79887 0.0165048 7.91082C0.0421438 8.02277 0.0981351 8.12549 0.178331 8.20771L4.645 12.786L3.58916 19.2585C3.57031 19.3743 3.58441 19.493 3.62984 19.6011C3.67528 19.7093 3.75022 19.8024 3.8461 19.87C3.94198 19.9375 4.05493 19.9767 4.17204 19.9831C4.28914 19.9895 4.40568 19.9628 4.50833 19.906L10 16.871L15.4917 19.9069C15.5943 19.9636 15.7109 19.9903 15.828 19.9839C15.9451 19.9775 16.058 19.9383 16.1539 19.8708C16.2498 19.8033 16.3247 19.7101 16.3702 19.602C16.4156 19.4939 16.4297 19.3751 16.4108 19.2594L15.355 12.7869L19.8217 8.20854C19.9021 8.12635 19.9583 8.02356 19.9841 7.91149C20.0098 7.79942 20.0042 7.68241 19.9678 7.57334C19.9313 7.46427 19.8655 7.36737 19.7775 7.2933C19.6895 7.21923 19.5829 7.17087 19.4692 7.15354Z" fill="#FF7E07"/>
</g>
<defs>
<clipPath id="clip0_31_1012">
<rect width="20" height="20" fill="white"/>
</clipPath>
</defs>
</svg>
