<svg width="30" height="30" viewBox="0 0 30 30" fill="none" xmlns="http://www.w3.org/2000/svg">
<circle cx="15" cy="15" r="15" fill="white"/>
<g clip-path="url(#clip0_35_1863)">
<path d="M10.5459 16.6694L9.989 18.7485L7.95341 18.7916C7.34506 17.6633 7 16.3723 7 15.0004C7 13.6738 7.32263 12.4228 7.8945 11.3213H7.89494L9.70719 11.6535L10.5011 13.4549C10.3349 13.9393 10.2443 14.4593 10.2443 15.0004C10.2444 15.5877 10.3508 16.1503 10.5459 16.6694Z" fill="#A9774E"/>
<path d="M22.8602 13.5059C22.9521 13.9898 23 14.4896 23 15.0004C23 15.5731 22.9398 16.1318 22.8251 16.6707C22.4357 18.5045 21.4181 20.1059 20.0084 21.239L20.008 21.2386L17.7253 21.1221L17.4023 19.1054C18.3377 18.5569 19.0687 17.6984 19.4537 16.6707H15.1759V13.5059H22.8602Z" fill="#A9774E"/>
<path d="M20.0079 21.2382L20.0084 21.2386C18.6374 22.3406 16.8958 22.9999 15 22.9999C11.9534 22.9999 9.30465 21.2971 7.95343 18.7911L10.546 16.6689C11.2216 18.472 12.9609 19.7555 15 19.7555C15.8765 19.7555 16.6976 19.5186 17.4022 19.105L20.0079 21.2382Z" fill="#A9774E"/>
<path d="M20.1063 8.84175L17.5147 10.9635C16.7855 10.5077 15.9235 10.2444 15 10.2444C12.9147 10.2444 11.1428 11.5868 10.5011 13.4545L7.89491 11.3209H7.89447C9.22591 8.75384 11.9081 7 15 7C16.9411 7 18.7208 7.69144 20.1063 8.84175Z" fill="#A9774E"/>
</g>
<defs>
<clipPath id="clip0_35_1863">
<rect width="16" height="16" fill="white" transform="translate(7 7)"/>
</clipPath>
</defs>
</svg>
