<svg width="100" height="100" viewBox="0 0 100 100" fill="none" xmlns="http://www.w3.org/2000/svg">
<rect opacity="0.04" width="100" height="100" fill="#A9774E"/>
<g clip-path="url(#clip0_56_2730)">
<path d="M24.5229 44.3468C23.8634 43.7381 23.8221 42.7101 24.4307 42.0506C27.6561 38.5552 31.4833 35.8018 35.806 33.867C40.2825 31.8633 45.058 30.8474 50 30.8474C54.942 30.8474 59.7175 31.8633 64.1939 33.867C68.5166 35.8018 72.3439 38.5552 75.5692 42.0506C76.1777 42.7101 76.1365 43.7382 75.477 44.3468C75.1772 44.6241 74.7837 44.778 74.3753 44.7775C74.1508 44.7778 73.9287 44.7315 73.7231 44.6415C73.5174 44.5515 73.3327 44.4197 73.1806 44.2546C67.2243 37.7996 58.7752 34.0974 50 34.0974C41.2248 34.0974 32.7757 37.7996 26.8193 44.2546C26.2106 44.9141 25.1825 44.9554 24.5229 44.3468ZM65.7826 51.6104C66.379 52.2812 67.406 52.3414 68.0767 51.745C68.7474 51.1486 68.8077 50.1215 68.2113 49.4509C63.5882 44.2515 56.9503 41.2697 50 41.2697C43.0496 41.2697 36.4119 44.2516 31.7887 49.4509C31.1924 50.1216 31.2526 51.1487 31.9233 51.7451C32.2203 52.01 32.6045 52.1561 33.0025 52.1557C33.4504 52.1557 33.8965 51.9716 34.2175 51.6105C38.2244 47.1042 43.9769 44.5198 50 44.5198C56.0231 44.5197 61.7756 47.1041 65.7826 51.6104ZM58.3377 58.9414C58.4899 59.1312 58.6828 59.2843 58.9022 59.3894C59.1217 59.4945 59.3619 59.5488 59.6052 59.5485C59.9625 59.5485 60.3221 59.4312 60.6222 59.19C61.3217 58.6277 61.433 57.6049 60.8707 56.9053C58.2077 53.592 54.2454 51.6918 50 51.6918C45.7546 51.6918 41.7924 53.592 39.1292 56.9053C38.5669 57.6048 38.6781 58.6276 39.3777 59.19C40.0772 59.7523 41.1001 59.6409 41.6623 58.9414C43.7055 56.3996 46.7444 54.9419 50 54.9419C53.2557 54.9418 56.2946 56.3996 58.3377 58.9414ZM50 62.114C51.9405 62.114 53.5192 63.6927 53.5192 65.6333C53.5192 67.5737 51.9406 69.1524 50 69.1524C48.0594 69.1524 46.4808 67.5737 46.4808 65.6333C46.4808 63.6928 48.0594 62.114 50 62.114ZM50 65.364C49.8541 65.364 49.7308 65.4873 49.7308 65.6333C49.7308 65.7792 49.8541 65.9024 50 65.9024C50.1459 65.9024 50.2692 65.7791 50.2692 65.6333C50.2691 65.4874 50.1459 65.364 50 65.364Z" fill="#A9774E"/>
</g>
<defs>
<clipPath id="clip0_56_2730">
<rect width="52" height="52" fill="white" transform="translate(24 24)"/>
</clipPath>
</defs>
</svg>
