<svg width="100" height="100" viewBox="0 0 100 100" fill="none" xmlns="http://www.w3.org/2000/svg">
<rect opacity="0.04" width="100" height="100" fill="#A9774E"/>
<path d="M33.681 24C38.1244 24 41.7272 27.6028 41.7272 32.0462V36.3095H60.8218V32.0462C60.8218 28.8037 58.1798 26.1617 54.9373 26.1617C51.6948 26.1617 49.0528 28.8037 49.0528 32.0462C49.0528 32.6467 48.5724 33.127 47.972 33.127C47.3715 33.127 46.8911 32.6467 46.8911 32.0462C46.8911 27.6028 50.4939 24 54.9373 24C59.3807 24 62.9835 27.6028 62.9835 32.0462V59.3672C63.0436 59.9677 62.5031 60.5081 61.9027 60.5081C61.3022 60.5081 60.8218 60.0277 60.8218 59.4272V56.7252H41.6671V59.4272C41.6671 60.0277 41.1867 60.5081 40.5863 60.5081C39.9858 60.5081 39.5054 60.0277 39.5054 59.4272V32.0462C39.5054 28.8037 36.8634 26.1617 33.6209 26.1617C30.3784 26.1617 27.7964 28.8037 27.7964 32.0462C27.7964 32.6467 27.3161 33.127 26.7156 33.127C26.1152 33.127 25.6348 32.6467 25.6348 32.0462C25.6348 27.6028 29.2376 24 33.681 24ZM41.6671 54.4434H60.8218V50.6005H41.6671V54.4434ZM41.6671 48.4388H60.8218V44.5958H41.6671V48.4388ZM41.6671 42.3141H60.8218V38.4711H41.6671V42.3141ZM28.3369 64.7113C28.577 64.1709 29.2376 63.8707 29.778 64.1709C35.1821 66.5127 37.8242 65.3718 40.6463 64.1709C43.5285 62.97 46.4708 61.709 51.6948 64.1709C57.099 66.5127 59.741 65.3718 62.5632 64.1709C65.4454 62.97 68.4477 61.709 73.6717 64.1709C74.2121 64.4111 74.4523 65.0716 74.2121 65.612C73.972 66.1524 73.3115 66.3926 72.771 66.1524C68.3877 64.1108 66.1059 65.0716 63.4639 66.2125C61.7225 66.933 59.8611 67.7136 57.3992 67.7136C55.5978 67.7136 53.4962 67.2933 50.8542 66.1524C46.4708 64.1108 44.1891 65.0716 41.547 66.2125C39.8057 66.933 37.9442 67.7136 35.4824 67.7136C33.681 67.7136 31.5794 67.2933 28.9373 66.1524C28.3969 65.9122 28.0967 65.2517 28.3369 64.7113ZM28.3969 72.9977C28.6371 72.4573 29.2976 72.157 29.838 72.4573C35.2422 74.7991 37.8842 73.6582 40.7064 72.4573C43.5886 71.2563 46.5309 69.9954 51.7549 72.4573C57.159 74.7991 59.8011 73.6582 62.6232 72.4573C65.5054 71.2563 68.4477 69.9954 73.7318 72.4573C74.2722 72.6975 74.5124 73.358 74.2722 73.8984C73.972 74.4388 73.3115 74.679 72.771 74.4388C68.3877 72.3972 66.1059 73.358 63.4639 74.4988C61.7225 75.2194 59.8611 76 57.3992 76C55.5978 76 53.4962 75.5797 50.8542 74.4388C46.4708 72.3972 44.1891 73.358 41.547 74.4988C39.8057 75.2194 37.9442 76 35.4824 76C33.681 76 31.5794 75.5797 28.9373 74.4388C28.3969 74.1986 28.0967 73.5381 28.3969 72.9977Z" fill="#A9774E"/>
</svg>
