<svg width="100" height="100" viewBox="0 0 100 100" fill="none" xmlns="http://www.w3.org/2000/svg">
<rect opacity="0.04" width="100" height="100" fill="#A9774E"/>
<g clip-path="url(#clip0_56_2756)">
<path d="M70.3125 76H29.6875C28.1797 75.9981 26.7342 75.3982 25.668 74.332C24.6018 73.2658 24.0019 71.8203 24 70.3125C24 70.097 24.0856 69.8903 24.238 69.738C24.3903 69.5856 24.597 69.5 24.8125 69.5H75.1875C75.403 69.5 75.6097 69.5856 75.762 69.738C75.9144 69.8903 76 70.097 76 70.3125C75.9981 71.8203 75.3982 73.2658 74.332 74.332C73.2658 75.3982 71.8203 75.9981 70.3125 76ZM25.7062 71.125C25.8947 72.042 26.3936 72.8661 27.1188 73.4581C27.8441 74.0501 28.7513 74.374 29.6875 74.375H70.3125C71.2487 74.374 72.1559 74.0501 72.8812 73.4581C73.6064 72.8661 74.1053 72.042 74.2938 71.125H25.7062Z" fill="#A9774E"/>
<path d="M56.5 71.125H27.25C27.1239 71.125 26.9995 71.0956 26.8866 71.0392C26.7738 70.9828 26.6757 70.9009 26.6 70.8L24.1625 67.55C24.072 67.4293 24.0168 67.2857 24.0033 67.1355C23.9897 66.9852 24.0183 66.8341 24.0858 66.6991C24.1533 66.5642 24.257 66.4507 24.3853 66.3713C24.5137 66.292 24.6616 66.25 24.8125 66.25H58.125C58.2639 66.2492 58.4006 66.2841 58.5221 66.3512C58.6437 66.4183 58.746 66.5155 58.8194 66.6334C58.8927 66.7513 58.9346 66.886 58.9411 67.0247C58.9475 67.1634 58.9183 67.3015 58.8563 67.4257L57.2313 70.6757C57.1635 70.8114 57.059 70.9254 56.9298 71.0048C56.8006 71.0842 56.6517 71.1258 56.5 71.125ZM27.6563 69.5H55.9979L56.8104 67.875H26.4375L27.6563 69.5ZM67.0625 71.125V69.5C67.709 69.5 68.329 69.2432 68.7861 68.7861C69.2432 68.329 69.5 67.709 69.5 67.0625V43.5H51.625V53.25H50V42.6875C50 42.472 50.0856 42.2653 50.238 42.113C50.3903 41.9606 50.597 41.875 50.8125 41.875H70.3125C70.528 41.875 70.7347 41.9606 70.887 42.113C71.0394 42.2653 71.125 42.472 71.125 42.6875V67.0625C71.1237 68.1395 70.6953 69.1721 69.9337 69.9337C69.1721 70.6953 68.1395 71.1237 67.0625 71.125Z" fill="#A9774E"/>
<path d="M71.9375 65.4375H70.3125C70.097 65.4375 69.8903 65.3519 69.738 65.1995C69.5856 65.0472 69.5 64.8405 69.5 64.625V46.75C69.5 46.5345 69.5856 46.3278 69.738 46.1755C69.8903 46.0231 70.097 45.9375 70.3125 45.9375H71.9375C73.0145 45.9388 74.0471 46.3672 74.8087 47.1288C75.5703 47.8904 75.9987 48.923 76 50V61.375C75.9987 62.452 75.5703 63.4846 74.8087 64.2462C74.0471 65.0078 73.0145 65.4362 71.9375 65.4375ZM71.125 63.8125H71.9375C72.584 63.8125 73.204 63.5557 73.6611 63.0986C74.1182 62.6415 74.375 62.0215 74.375 61.375V50C74.375 49.3535 74.1182 48.7335 73.6611 48.2764C73.204 47.8193 72.584 47.5625 71.9375 47.5625H71.125V63.8125ZM58.9375 37.8125H57.3125C57.3023 36.8383 57.6491 35.894 58.2875 35.1581C58.7057 34.6989 58.9375 34.1001 58.9375 33.479C58.9375 32.8579 58.7057 32.2592 58.2875 31.8C57.6491 31.064 57.3023 30.1198 57.3125 29.1456C57.3019 28.1715 57.6488 27.2274 58.2875 26.4919C58.7128 26.037 58.9457 25.4352 58.9375 24.8125H60.5625C60.5727 25.7867 60.2259 26.731 59.5875 27.4669C59.1621 27.9215 58.9291 28.5231 58.9375 29.1456C58.9293 29.7683 59.1622 30.37 59.5875 30.825C60.2169 31.5661 60.5625 32.5067 60.5625 33.479C60.5625 34.4513 60.2169 35.392 59.5875 36.1331C59.1622 36.588 58.9293 37.1898 58.9375 37.8125ZM63.8125 37.8125H62.1875C62.1773 36.8383 62.5241 35.894 63.1625 35.1581C63.5807 34.6989 63.8125 34.1001 63.8125 33.479C63.8125 32.8579 63.5807 32.2592 63.1625 31.8C62.5241 31.064 62.1773 30.1198 62.1875 29.1456C62.1769 28.1715 62.5238 27.2274 63.1625 26.4919C63.5878 26.037 63.8207 25.4352 63.8125 24.8125H65.4375C65.4477 25.7867 65.1009 26.731 64.4625 27.4669C64.0371 27.9215 63.8041 28.5231 63.8125 29.1456C63.8043 29.7683 64.0372 30.37 64.4625 30.825C65.0919 31.5661 65.4375 32.5067 65.4375 33.479C65.4375 34.4513 65.0919 35.392 64.4625 36.1331C64.0372 36.588 63.8043 37.1898 63.8125 37.8125ZM49.4556 67.4688L48.05 66.6562C48.2632 66.2855 48.3752 65.8652 48.375 65.4375C48.3731 63.9297 47.7732 62.4842 46.707 61.418C45.6408 60.3518 44.1953 59.7519 42.6875 59.75H32.9375C31.4297 59.7519 29.9842 60.3518 28.918 61.418C27.8518 62.4842 27.2519 63.9297 27.25 65.4375C27.2498 65.8652 27.3618 66.2855 27.575 66.6562L26.1678 67.4688C25.8117 66.851 25.6245 66.1505 25.625 65.4375C25.6272 63.4988 26.3983 61.64 27.7692 60.2692C29.1401 58.8983 30.9988 58.1272 32.9375 58.125H42.6875C44.6262 58.1272 46.485 58.8983 47.8558 60.2692C49.2267 61.64 49.9979 63.4988 50 65.4375C50.0004 66.1507 49.8126 66.8513 49.4556 67.4688Z" fill="#A9774E"/>
<path d="M36.1875 64.6251H34.5625C34.5619 63.0588 35.1214 61.5438 36.14 60.3539C37.1585 59.1639 38.5691 58.3775 40.1168 58.1365L40.3833 59.7387L40.25 58.9376L40.3865 59.7387C40.2151 59.768 36.1875 60.5147 36.1875 64.6251Z" fill="#A9774E"/>
<path d="M32.125 64.6251H30.5C30.4994 63.0588 31.0589 61.5438 32.0775 60.3539C33.096 59.1639 34.5066 58.3775 36.0543 58.1365L36.3207 59.7387L36.1875 58.9376L36.324 59.7387C36.1526 59.768 32.125 60.5147 32.125 64.6251ZM40.25 64.6251H38.625C38.6537 63.2158 39.1056 61.8477 39.9219 60.6985C40.7383 59.5494 41.8813 58.6723 43.2026 58.1812L43.7974 59.694C42.7804 60.0664 41.8987 60.7355 41.2662 61.6147C40.6338 62.4938 40.2798 63.5425 40.25 64.6251Z" fill="#A9774E"/>
<path d="M57.3125 65.4375H55.6875V62.1875C55.6885 60.8669 55.23 59.5871 54.3905 58.5676C53.551 57.5482 52.3829 56.8526 51.0866 56.6003C49.7904 56.348 48.4467 56.5546 47.2861 57.1848C46.1255 57.8149 45.2204 58.8293 44.726 60.0539L43.2197 59.4445C43.8555 57.8704 45.0192 56.5665 46.5112 55.7565C48.0033 54.9465 49.7306 54.681 51.3971 55.0053C53.0635 55.3297 54.5651 56.2237 55.6445 57.5342C56.7238 58.8446 57.3135 60.4898 57.3125 62.1875V65.4375Z" fill="#A9774E"/>
<path d="M47.5625 57.3125H49.1875V58.9375H47.5625V57.3125ZM50.8125 57.3125H52.4375V58.9375H50.8125V57.3125ZM26.574 63.4509C24.8679 61.0201 23.9676 58.1152 24 55.1456C24 51.4121 28.1974 48.375 33.3576 48.375H35.8186C40.9496 48.375 45.125 51.4121 45.125 55.1456C45.1246 55.3551 45.1133 55.5645 45.0909 55.7728L43.4756 55.6063C43.4915 55.4546 43.4996 55.3021 43.5 55.1496C43.5 52.3083 40.0542 50 35.8186 50H33.3576C29.0944 50 25.625 52.3083 25.625 55.1456C25.5873 57.795 26.3931 60.3878 27.926 62.5491L26.574 63.4509Z" fill="#A9774E"/>
<path d="M33.75 49.2631C33.7279 49.0157 33.6755 48.7721 33.594 48.5375C33.5892 48.5236 33.5848 48.5095 33.581 48.4953C33.5041 48.2189 33.3363 47.9766 33.1047 47.8073C32.8731 47.6381 32.5912 47.5518 32.3046 47.5625H31.3125V45.9375H32.3046C32.9317 45.9292 33.5448 46.1233 34.053 46.4909C34.5612 46.8586 34.9373 47.3802 35.1256 47.9785C35.1353 48.0053 35.1443 48.0329 35.1516 48.0598C35.2658 48.4008 35.3408 48.7539 35.375 49.1119L33.75 49.2631Z" fill="#A9774E"/>
<path d="M35.375 50H34.5625C34.347 50 34.1403 49.9144 33.988 49.762C33.8356 49.6097 33.75 49.403 33.75 49.1875V47.5625C33.75 47.5112 33.7549 47.4601 33.7646 47.4098C34.2253 44.9983 36.7108 43.5 40.25 43.5H40.3808C40.9673 43.4999 41.5524 43.5573 42.1277 43.6714C42.9872 43.8318 43.8303 44.0703 44.6464 44.384C44.8299 44.4666 44.9762 44.6144 45.057 44.7988C45.1377 44.9831 45.1472 45.1908 45.0836 45.3817C45.0202 45.5711 43.4504 50 35.375 50ZM35.375 48.375C40.315 48.375 42.3576 46.607 43.1279 45.5776C42.6927 45.4568 42.2531 45.3524 41.81 45.2648C41.3393 45.1717 40.8606 45.1249 40.3808 45.125H40.25C37.5793 45.125 35.7211 46.0886 35.375 47.6438V48.375Z" fill="#A9774E"/>
<path d="M35.1369 49.7619L33.9881 48.6131C34.1636 48.4376 38.3569 44.3125 44.3125 44.3125V45.9375C39.0223 45.9375 35.1751 49.7238 35.1369 49.7619ZM66.25 45.125H67.875V46.75H66.25V45.125ZM66.25 48.375H67.875V50H66.25V48.375ZM41.875 59.75H33.75C33.5345 59.75 33.3278 59.6644 33.1755 59.512C33.0231 59.3597 32.9375 59.153 32.9375 58.9375C32.9388 57.8605 33.3672 56.8279 34.1288 56.0663C34.8904 55.3047 35.923 54.8763 37 54.875H38.625C39.702 54.8763 40.7346 55.3047 41.4962 56.0663C42.2578 56.8279 42.6862 57.8605 42.6875 58.9375C42.6875 59.153 42.6019 59.3597 42.4495 59.512C42.2972 59.6644 42.0905 59.75 41.875 59.75ZM34.7014 58.125H40.9236C40.7549 57.6501 40.4435 57.239 40.0319 56.948C39.6204 56.6571 39.129 56.5006 38.625 56.5H37C36.496 56.5006 36.0046 56.6571 35.5931 56.948C35.1815 57.239 34.8701 57.6501 34.7014 58.125Z" fill="#A9774E"/>
</g>
<defs>
<clipPath id="clip0_56_2756">
<rect width="52" height="52" fill="white" transform="translate(24 24)"/>
</clipPath>
</defs>
</svg>
