<svg width="45" height="45" viewBox="0 0 45 45" fill="none" xmlns="http://www.w3.org/2000/svg">
<rect x="-0.5" y="0.5" width="44" height="44" transform="matrix(-1 0 0 1 44 0)" stroke="#A9774E"/>
<path d="M12.1024 21.4565L30.4016 21.4565L26.9724 18.0314C25.9882 17.0471 27.4646 15.5668 28.4488 16.551L31.5709 19.677L33.6575 21.7636C33.8522 21.9592 33.9615 22.2239 33.9615 22.4999C33.9615 22.7758 33.8522 23.0405 33.6575 23.2361L28.4449 28.4487C28.3466 28.5494 28.229 28.6293 28.0991 28.6834C27.9692 28.7375 27.8297 28.7648 27.689 28.7636C27.4811 28.7631 27.2782 28.7005 27.1062 28.5838C26.9341 28.4672 26.8009 28.3018 26.7235 28.1089C26.6461 27.916 26.628 27.7044 26.6717 27.5012C26.7153 27.298 26.8187 27.1124 26.9685 26.9684L30.4055 23.5432L12.0472 23.5432C10.6024 23.4684 10.7087 21.3857 12.1024 21.4565Z" fill="#A9774E"/>
</svg>
