<svg width="46" height="45" viewBox="0 0 46 45" fill="none" xmlns="http://www.w3.org/2000/svg">
<rect x="1" y="0.5" width="44" height="44" stroke="#A9774E"/>
<path d="M33.3977 21.4568L15.0984 21.4568L18.5276 18.0316C19.5118 17.0473 18.0355 15.567 17.0512 16.5513L13.9292 19.6773L11.8425 21.7639C11.6478 21.9594 11.5385 22.2241 11.5385 22.5001C11.5385 22.7761 11.6478 23.0408 11.8425 23.2363L17.0551 28.4489C17.1534 28.5497 17.271 28.6295 17.4009 28.6837C17.5308 28.7378 17.6703 28.7651 17.811 28.7639C18.0189 28.7633 18.2218 28.7007 18.3939 28.5841C18.5659 28.4674 18.6991 28.302 18.7766 28.1091C18.854 27.9163 18.872 27.7046 18.8283 27.5014C18.7847 27.2982 18.6813 27.1127 18.5315 26.9686L15.0945 23.5434L33.4528 23.5434C34.8977 23.4686 34.7914 21.3859 33.3977 21.4568Z" fill="#A9774E"/>
</svg>
