<svg width="26" height="27" viewBox="0 0 26 27" fill="none" xmlns="http://www.w3.org/2000/svg">
<g clip-path="url(#clip0_49_905)">
<path d="M7.96555 19.3248L17.282 10.0083L17.28 13.498C17.28 14.5002 18.7853 14.5022 18.7853 13.5L18.7833 10.319L18.7833 8.19437C18.7829 7.99568 18.7038 7.80524 18.5633 7.66474C18.4228 7.52424 18.2323 7.44513 18.0336 7.44472L12.726 7.44472C12.6247 7.44344 12.5241 7.46266 12.4305 7.50124C12.3368 7.53982 12.2518 7.59696 12.1808 7.66921C12.0753 7.77531 12.0038 7.91051 11.9756 8.05748C11.9474 8.20445 11.9638 8.35649 12.0226 8.49411C12.0814 8.63172 12.1799 8.74864 12.3056 8.82987C12.4313 8.9111 12.5784 8.95294 12.728 8.95003L16.2217 8.94401L6.87516 18.2905C6.17763 19.0642 7.29208 20.0704 7.96555 19.3248Z" fill="white"/>
</g>
<defs>
<clipPath id="clip0_49_905">
<rect width="18" height="18" fill="white" transform="translate(0 13.5) rotate(-45)"/>
</clipPath>
</defs>
</svg>
