<svg width="100" height="100" viewBox="0 0 100 100" fill="none" xmlns="http://www.w3.org/2000/svg">
<rect opacity="0.04" width="100" height="100" fill="#A9774E"/>
<path d="M74.375 42.6875H51.625C51.1375 42.6875 50.8125 43.0125 50.8125 43.5V48.9438L48.7813 48.4563L46.5875 46.2625C49.025 43.9875 49.1875 39.1938 49.1875 37.8125C52.1938 37.8125 54.3063 37 55.1188 35.5375C55.4438 34.8875 55.6875 33.8313 54.7938 32.45C53.9 31.15 52.7625 30.5 51.2188 30.5H48.2938C48.05 29.0375 47.075 25.95 43.2563 25.0562C42.4438 24.8937 41.3063 24.8125 41.0625 24.8125C32.6125 24.8125 31.3125 28.875 31.3125 31.3125V35.375C31.3125 35.9438 31.5563 36.5938 32.0438 37.0813C31.6375 37.5688 31.3125 38.3813 31.3125 39.4375C31.3125 41.4688 32.6938 42.3625 33.9125 42.6062C34.3188 43.825 34.8875 44.7188 35.4563 45.45L32.45 48.4563C31.8 49.1875 32.6125 49.9187 32.6125 49.9187L29.1188 53.4125C28.7938 53.8188 25.625 57.0687 25.625 59.75C25.625 59.9125 25.625 59.9938 25.7062 60.075L29.7688 68.2C29.85 68.4438 30.0938 68.525 30.2563 68.6063C30.3375 68.6063 31.0688 68.85 32.125 68.85C32.125 68.9313 32.0438 73.4813 32.0438 73.4813C32.0438 73.9688 32.3688 74.2938 32.8563 74.2938C33.3438 74.2938 33.6687 73.9688 33.6687 73.4813V71.2062C34.8875 72.6687 36.8375 74.2938 39.3563 74.2938C41.875 74.2938 46.5063 72.6687 50.5688 71.2062C51.3 70.9625 51.95 70.7188 52.6 70.475C52.7625 70.3937 52.925 70.3937 53.1688 70.3125V73.5625C53.1688 74.05 53.4938 74.375 53.9813 74.375C54.4688 74.375 54.7938 74.05 54.7938 73.5625V69.9062C56.2563 69.5812 57.6375 69.4188 58.8563 69.5H64.5438C65.925 69.5 67.7938 69.0125 68.3625 67.55C68.525 67.1437 68.6063 66.7375 68.6063 66.25H74.2938C74.7813 66.25 75.1063 65.925 75.1063 65.4375V43.5C75.1875 43.0125 74.8625 42.6875 74.375 42.6875ZM65.4375 44.3125V48.7L63.325 47.6438C63.2438 47.5625 63.1625 47.5625 63 47.5625C62.8375 47.5625 62.7563 47.5625 62.675 47.6438L60.5625 48.7V44.3125H65.4375ZM41.7125 48.7812C41.6313 48.6187 41.225 48.375 41.225 48.375C42.2 48.375 43.0125 48.2125 43.825 47.9688L43.5 48.9438L42.6875 51.0562C42.6875 51.0562 41.7938 48.7812 41.7125 48.7812ZM45.6938 47.6438L47.4 49.35L46.5875 50.8937L45.2063 49.025L45.6938 47.6438ZM47.1563 32.125C46.425 32.6937 45.775 33.425 45.2875 34.075C43.9063 36.1062 42.6875 36.1875 42.6875 36.1875H38.3813C38.7063 35.8625 39.0312 35.4563 39.275 35.05C40.25 33.5875 42.0375 32.125 43.5 32.125H47.1563ZM53.4125 33.425C53.8188 33.9938 53.9 34.4812 53.6563 34.8063C53.3313 35.4563 51.95 36.1875 49.1875 36.1875H49.1063C48.9438 34.725 48.7 33.6687 48.5375 33.1C49.4313 32.5312 50.325 32.125 51.2188 32.125C52.1125 32.125 52.8438 32.5313 53.4125 33.425ZM32.9375 31.3125C32.9375 28.3875 35.2938 27.1688 37.975 26.6812C36.5938 28.1437 36.1875 30.0125 36.1875 31.3125C36.1875 31.8 36.5125 32.125 37 32.125C37.4063 32.125 37.8125 31.8 37.8125 31.3125C37.8125 30.825 37.975 26.925 41.9563 26.5187C45.45 26.8438 46.425 29.2812 46.6688 30.5H43.5C41.3063 30.5 39.1125 32.2875 37.975 34.075C36.5938 36.1062 35.375 36.1875 35.375 36.1875H33.75C33.1 36.1875 32.9375 35.7812 32.9375 35.375V31.3125ZM34.5625 41.0625C34.3188 41.0625 32.9375 40.9813 32.9375 39.4375C32.9375 37.975 33.5875 37.8125 33.75 37.8125H42.6875C42.9313 37.8125 44.8 37.7312 46.5875 35.05C46.75 34.8063 46.9125 34.5625 47.1563 34.3187C47.3188 35.05 47.5625 36.2688 47.5625 37.8938C47.5625 37.975 47.8875 42.4438 45.5313 45.0437C44.475 46.1812 42.9313 46.75 41.0625 46.75C40.9813 46.75 36.7563 46.6688 35.375 41.6313C35.2125 41.3063 34.8875 41.0625 34.5625 41.0625ZM36.2688 46.9937L39.8438 49.35L37.65 52.1125L34.075 49.1875L36.2688 46.9937ZM27.25 59.5875C27.4125 57.8812 29.4438 55.4438 30.2563 54.6313L33.8313 51.0562L37.2438 53.9C37.4062 54.0625 37.5688 54.0625 37.7313 54.0625H37.8125C38.0563 54.0625 38.2188 53.9 38.3813 53.7375L40.7375 50.7313L41.875 53.4937C42.0375 53.8187 42.2812 53.9813 42.6063 53.9813C42.9313 53.9813 43.2563 53.8187 43.3375 53.4937L44.3938 50.8125L45.9375 52.925C46.1 53.1687 46.3438 53.25 46.6688 53.25C46.9125 53.25 47.1563 53.0875 47.3188 52.8438L48.6188 50.1625L50.65 50.65V63.5688C49.4313 63.975 47.9688 64.4625 46.425 64.95C45.2063 65.3563 43.9875 65.7625 42.85 66.1688C41.4688 66.6562 39.8438 66.0875 39.1125 64.7875L35.9438 59.3438C35.7 58.9375 35.2125 58.8563 34.8063 59.1C34.4 59.3438 34.3188 59.8312 34.5625 60.2375L36.8375 63.975C35.5375 67.7938 32.0438 67.4688 30.9875 67.225L27.25 59.5875ZM66.9 66.9C66.6563 67.55 65.5188 67.875 64.625 67.875H59.0188C56.3375 67.7125 53.575 68.525 52.1938 69.0125C51.5438 69.2563 50.8125 69.5 50.1625 69.7437C46.3438 71.0438 41.7125 72.75 39.4375 72.75C36.5938 72.75 34.5625 69.825 33.9125 68.7687C35.2938 68.4437 36.8375 67.7125 37.975 65.7625C38.8688 67.1438 40.4125 67.9562 42.0375 67.9562C42.525 67.9562 43.0125 67.875 43.5 67.7125C44.5563 67.3875 45.775 66.9813 47.075 66.4937C50.65 65.275 55.0375 63.8125 56.175 63.8125H61.8625C62.1063 63.8125 62.5938 63.975 62.675 64.625H60.5625C60.075 64.625 59.75 64.95 59.75 65.4375C59.75 65.925 60.075 66.25 60.5625 66.25C60.5625 66.25 66.7375 66.3312 67.0625 66.3312C67.0625 66.4937 66.9813 66.7375 66.9 66.9ZM73.5625 64.625H64.3C64.2188 62.8375 62.8375 62.1875 61.8625 62.1875H56.175C55.4438 62.1875 54.225 62.5125 52.4375 63V44.3125H58.9375V50C58.9375 50.2437 59.1 50.5688 59.3438 50.7313C59.5875 50.8938 59.9125 50.8938 60.1563 50.7313L63.0813 49.2688L66.0063 50.7313C66.0063 50.8125 66.0875 50.8125 66.25 50.8125C66.4125 50.8125 66.575 50.8125 66.6563 50.7313C66.9 50.5688 67.0625 50.325 67.0625 50V44.3125H73.5625V64.625Z" fill="#A9774E"/>
<path d="M58.9375 58.9375H55.6875C55.2 58.9375 54.875 59.2625 54.875 59.75C54.875 60.2375 55.2 60.5625 55.6875 60.5625H58.9375C59.425 60.5625 59.75 60.2375 59.75 59.75C59.75 59.2625 59.425 58.9375 58.9375 58.9375ZM55.6875 58.125H57.3125C57.8 58.125 58.125 57.8 58.125 57.3125C58.125 56.825 57.8 56.5 57.3125 56.5H55.6875C55.2 56.5 54.875 56.825 54.875 57.3125C54.875 57.8 55.2 58.125 55.6875 58.125Z" fill="#A9774E"/>
</svg>
