<svg width="30" height="30" viewBox="0 0 30 30" fill="none" xmlns="http://www.w3.org/2000/svg">
<circle cx="15" cy="15" r="15" fill="white"/>
<path d="M20.7467 12.6337C20.0467 9.55366 17.36 8.16699 15 8.16699C15 8.16699 15 8.16699 14.9933 8.16699C12.64 8.16699 9.94667 9.54699 9.24667 12.627C8.46667 16.067 10.5733 18.9803 12.48 20.8137C13.1867 21.4937 14.0933 21.8337 15 21.8337C15.9067 21.8337 16.8133 21.4937 17.5133 20.8137C19.42 18.9803 21.5267 16.0737 20.7467 12.6337ZM15 15.9737C13.84 15.9737 12.9 15.0337 12.9 13.8737C12.9 12.7137 13.84 11.7737 15 11.7737C16.16 11.7737 17.1 12.7137 17.1 13.8737C17.1 15.0337 16.16 15.9737 15 15.9737Z" fill="#A9774E"/>
</svg>
