<svg width="30" height="30" viewBox="0 0 30 30" fill="none" xmlns="http://www.w3.org/2000/svg">
<circle cx="15" cy="15" r="15" fill="white"/>
<path d="M14.3667 16.9663L13.1333 18.1997C12.8733 18.4597 12.46 18.4597 12.1933 18.2063C12.12 18.133 12.0467 18.0663 11.9733 17.993C11.2867 17.2997 10.6667 16.573 10.1133 15.813C9.56668 15.053 9.12668 14.293 8.80668 13.5397C8.49334 12.7797 8.33334 12.053 8.33334 11.3597C8.33334 10.9063 8.41334 10.473 8.57334 10.073C8.73334 9.66634 8.98668 9.29301 9.34001 8.95967C9.76668 8.53967 10.2333 8.33301 10.7267 8.33301C10.9133 8.33301 11.1 8.37301 11.2667 8.45301C11.44 8.53301 11.5933 8.65301 11.7133 8.82634L13.26 11.0063C13.38 11.173 13.4667 11.3263 13.5267 11.473C13.5867 11.613 13.62 11.753 13.62 11.8797C13.62 12.0397 13.5733 12.1997 13.48 12.353C13.3933 12.5063 13.2667 12.6663 13.1067 12.8263L12.6 13.353C12.5267 13.4263 12.4933 13.513 12.4933 13.6197C12.4933 13.673 12.5 13.7197 12.5133 13.773C12.5333 13.8263 12.5533 13.8663 12.5667 13.9063C12.6867 14.1263 12.8933 14.413 13.1867 14.7597C13.4867 15.1063 13.8067 15.4597 14.1533 15.813C14.22 15.8797 14.2933 15.9463 14.36 16.013C14.6267 16.273 14.6333 16.6997 14.3667 16.9663Z" fill="#A9774E"/>
<path d="M21.6467 19.2204C21.6467 19.407 21.6133 19.6004 21.5467 19.787C21.5267 19.8404 21.5067 19.8937 21.48 19.947C21.3667 20.187 21.22 20.4137 21.0267 20.627C20.7 20.987 20.34 21.247 19.9333 21.4137C19.9267 21.4137 19.92 21.4204 19.9133 21.4204C19.52 21.5804 19.0933 21.667 18.6333 21.667C17.9533 21.667 17.2267 21.507 16.46 21.1804C15.6933 20.8537 14.9267 20.4137 14.1667 19.8604C13.9067 19.667 13.6467 19.4737 13.4 19.267L15.58 17.087C15.7667 17.227 15.9333 17.3337 16.0733 17.407C16.1067 17.4204 16.1467 17.4404 16.1933 17.4604C16.2467 17.4804 16.3 17.487 16.36 17.487C16.4733 17.487 16.56 17.447 16.6333 17.3737L17.14 16.8737C17.3067 16.707 17.4667 16.5804 17.62 16.5004C17.7733 16.407 17.9267 16.3604 18.0933 16.3604C18.22 16.3604 18.3533 16.387 18.5 16.447C18.6467 16.507 18.8 16.5937 18.9667 16.707L21.1733 18.2737C21.3467 18.3937 21.4667 18.5337 21.54 18.7004C21.6067 18.867 21.6467 19.0337 21.6467 19.2204Z" fill="#A9774E"/>
</svg>
