<svg width="66" height="50" viewBox="0 0 66 50" fill="none" xmlns="http://www.w3.org/2000/svg">
<path opacity="0.1" d="M0 22.9681H16.008C15.7343 34.6348 12.4253 35.9591 8.26933 36.3371L6.66667 36.5358V49.3644L8.514 49.2654C13.941 48.9601 19.941 47.9818 23.944 43.0401C27.453 38.7081 29 31.6308 29 20.7664V0.634766H0V22.9681ZM37 0.634766V22.9681H52.7943C52.5207 34.6348 49.3187 35.9591 45.1627 36.3371L43.6667 36.5358V49.3644L45.4073 49.2654C50.8343 48.9601 56.888 47.9818 60.891 43.0401C64.3997 38.7081 66 31.6308 66 20.7664V0.634766H37Z" fill="#A9774E"/>
</svg>
